<svg version="1.1" id="Layer_1" xmlns="http://www.w3.org/2000/svg" x="0" y="0" viewBox="0 0 650 361" style="enable-background:new 0 0 650 361" xml:space="preserve">
  <style>
    .st0{stroke:#000;stroke-width:10;stroke-miterlimit:10}
  </style>
  <path class="st0" d="M93 200l-1-11-4-9-8-11-13-14-9-11-9-13c-3-3-5-9-6-14-2-5-2-11-2-17 0-8 1-16 3-22 3-6 7-12 11-16s10-8 16-10 13-4 20-4c10 0 18 1 26 4 8 2 15 6 22 11v16a70 70 0 00-47-17c-6-1-11 0-15 2s-9 4-12 8l-7 12c-2 5-3 10-3 16a53 53 0 008 29l8 11a255 255 0 0019 20l9 11 6 12 2 14v77H93v-74z"/>
  <path d="M389 273c-7 6-17 10-27 10-3 0-19 39-36 39-16 0-31-39-34-39-11 0-20-3-28-10v-15c8 9 18 14 27 14s17-4 25-12a91 91 0 01-30-66c0-14 4-26 11-35 8-9 17-13 30-13s22 4 29 13 11 20 11 34c0 26-10 48-29 67 8 8 16 12 25 12s18-4 26-13v14zM449 204c-8 0-15-3-21-9s-9-13-9-21 3-15 9-21 13-9 21-9c9 0 16 3 21 9 6 6 9 13 9 21s-3 15-9 21c-5 6-12 9-21 9z"/>
  <path class="st0" d="M557 245l-14-1v-47a46 46 0 018-26l8-11a418 418 0 0120-20l8-11 6-13a53 53 0 00-1-32c-2-5-4-9-7-12s-22-11-27-11a70 70 0 00-47 18V63c7-5 14-9 22-11 7-3 16-4 26-4 7 0 13 2 20 4a46 46 0 0126 26c3 6 4 14 4 22a59 59 0 01-8 31c-3 5-5 9-9 13l-9 11a316 316 0 00-21 25 39 39 0 00-5 20v45z"/>
  <path d="M204 204c-8 0-15-3-21-9s-9-13-9-21 3-15 9-21 13-9 21-9c9 0 16 3 21 9 6 6 9 13 9 21s-3 15-9 21c-5 6-12 9-21 9z"/>
  <circle cx="548.6" cy="287.1" r="13.6"/>
</svg>
